<?xml version="1.0" standalone="no"?>
<!DOCTYPE svg PUBLIC "-//W3C//DTD SVG 20010904//EN"
 "http://www.w3.org/TR/2001/REC-SVG-20010904/DTD/svg10.dtd">
<svg version="1.0" xmlns="http://www.w3.org/2000/svg"
 width="512.000000pt" height="512.000000pt" viewBox="0 0 512.000000 512.000000"
 preserveAspectRatio="xMidYMid meet">
<metadata>
Created by potrace 1.11, written by Peter Selinger 2001-2013
</metadata>
<g transform="translate(0.000000,512.000000) scale(0.100000,-0.100000)"
fill="#000000" stroke="none">
<path d="M2385 5064 c-535 -55 -936 -206 -1335 -502 -149 -111 -381 -343 -492
-492 -258 -347 -414 -718 -480 -1145 -31 -199 -31 -531 0 -730 86 -550 321
-1015 711 -1406 391 -390 856 -625 1406 -711 199 -31 531 -31 730 0 549 86
1016 321 1406 711 390 390 625 857 711 1406 17 113 22 184 22 365 0 181 -5
252 -22 365 -86 550 -321 1015 -711 1406 -390 389 -863 629 -1403 710 -127 19
-449 33 -543 23z m483 -1569 c18 -8 35 -20 38 -28 8 -22 -516 -1828 -536
-1851 -16 -17 -23 -17 -69 -6 -28 7 -61 20 -73 30 l-22 17 264 914 c145 503
270 922 279 932 17 20 57 17 119 -8z m-828 -281 c35 -33 50 -55 50 -72 0 -21
-58 -84 -277 -304 -152 -152 -275 -280 -272 -282 2 -3 127 -128 277 -279 213
-214 272 -279 272 -299 0 -17 -15 -40 -50 -72 -27 -25 -55 -46 -62 -46 -18 0
-698 682 -698 700 0 18 680 700 698 700 7 0 35 -21 62 -46z m1457 -296 c189
-189 343 -350 343 -358 0 -18 -680 -700 -698 -700 -7 0 -35 21 -62 46 -35 33
-50 55 -50 72 0 21 58 84 277 304 152 152 275 280 272 282 -2 3 -127 128 -276
279 -214 214 -273 279 -273 299 0 17 15 40 50 72 27 25 55 46 62 46 7 0 167
-154 355 -342z"/>
</g>
</svg>
